<svg xmlns="http://www.w3.org/2000/svg" xmlns:xlink="http://www.w3.org/1999/xlink" width="683" height="1080" viewBox="0 0 683 1080">
  <defs>
    <linearGradient id="linear-gradient" x1="1" x2="0" y2="0.648" gradientUnits="objectBoundingBox">
      <stop offset="0" stop-color="#fff"/>
      <stop offset="0.342" stop-color="#fff" stop-opacity="0.922"/>
      <stop offset="0.654" stop-color="#fff" stop-opacity="0.851"/>
      <stop offset="1" stop-color="#fff" stop-opacity="0.6"/>
    </linearGradient>
    <clipPath id="clip-LOGO_WHITE3">
      <rect width="683" height="1080"/>
    </clipPath>
  </defs>
  <g id="LOGO_WHITE3" data-name="LOGO WHITE3" clip-path="url(#clip-LOGO_WHITE3)">
    <g id="Group_11147" data-name="Group 11147" transform="translate(-155.838 112.5)">
      <g id="Group_10979" data-name="Group 10979" transform="translate(213.335 0)">
        <g id="Group_10977" data-name="Group 10977" transform="translate(63.417 0)">
          <path id="Path_37759" data-name="Path 37759" d="M276.624,0s-1.353,37.934-1.967,56.316c-2.087,84.978-46.384,156.78-119.876,187.431L0,146.961Z" transform="translate(155.757 9.654) rotate(-2)" fill="url(#linear-gradient)"/>
          <path id="Path_37763" data-name="Path 37763" d="M377.729.082s13.482-.733,21.78,7.544S411.5,25,433,62.319c10.609,18.416,25.432,43.333,44.932,77.988,8.461,15.935-2.144,35.845-19.1,35.85L22.9,176.282c-16.952,0-28.841-20.7-19.788-36.265L83.918,0S364.453.016,377.729.082Z" transform="translate(88.149 114.533) rotate(30)" fill="#fff"/>
        </g>
        <g id="Group_10982" data-name="Group 10982" transform="translate(0 347.369)">
          <path id="Path_37759-2" data-name="Path 37759" d="M276.624,0s-1.353,37.934-1.967,56.316c-2.087,84.978-46.384,156.78-119.876,187.431L0,146.961Z" transform="matrix(-0.999, 0.035, -0.035, -0.999, 348.886, 497.977)" fill="url(#linear-gradient)"/>
          <path id="Path_37763-2" data-name="Path 37763" d="M377.729.083s13.482-.733,21.78,7.544S411.5,25,433,62.319c10.609,18.416,25.432,43.333,44.931,77.988,8.461,15.935-2.144,35.845-19.1,35.849L22.9,176.282c-16.952,0-28.841-20.7-19.788-36.265L83.918,0S364.453.016,377.729.083Z" transform="translate(416.494 393.098) rotate(-150)" fill="#fff"/>
        </g>
      </g>
    </g>
  </g>
</svg>
